:SAMPLES-PER-SECOND 30
:FULLY-SPECIFIED
:DEGREES
279
root  -23.9098 38.9156 30.7211 -174.871 -75.2148 168.309
RightUpLeg  -16.753 -22.0398 9.473
RightLeg  18.7622 -20.1347 -3.20876
RightFoot  -5.61074 0.964947 -19.6991
RightToes  -4.65663e-010 0 -3.6325e-017
Spine  -2.3276 -3.26035 3.55777
Spine1  7.97389 -4.266 4.45068
HEad  13.112 -11.1098 -4.76251
LeftShoulder1  7.50276 -10.4993 -46.7313
LeftArm  -10.0425 10.381 -21.1418
LeftForeArm  27.5963 -32.5036 -5.59895
LeftHand  -0.244104 0.0205437 5.32207
RightShoulder  4.88583 7.74534 37.4086
RightArm  -12.1659 -23.1882 30.5188
RightForeArm  14.9262 6.59432 4.71593
RightHand  -0.68629 1.04116 -12.499
LeftUpLeg  15.7262 17.0703 10.7703
LeftLeg  37.8133 0.430692 0.705378
LeftFoot  9.41107 2.99843 -16.7115
LeftToes  -7.27628e-011 -1.6005e-012 -1.37987e-011
280
root  -25.1193 38.7865 30.1985 179.2 -74.7196 174.29
RightUpLeg  -15.5473 -22.5035 10.6883
RightLeg  21.7605 -19.3755 -4.0393
RightFoot  -8.45224 0.4029 -18.1277
RightToes  -4.65663e-010 0 -3.6325e-017
Spine  -1.17919 -4.04289 4.10604
Spine1  7.57695 -5.1002 6.64089
HEad  13.3258 -12.0796 -3.84731
LeftShoulder1  7.53887 -10.5221 -46.8811
LeftArm  -10.3775 15.6328 -23.7688
LeftForeArm  27.8688 -33.4795 -5.82325
LeftHand  -0.244104 0.0205437 5.32207
RightShoulder  4.87268 7.70485 37.4469
RightArm  -11.7316 -21.767 31.636
RightForeArm  14.6794 9.41895 5.11702
RightHand  -0.731078 1.39159 -12.6364
LeftUpLeg  7.88743 12.0751 10.4715
LeftLeg  49.7384 0.874433 1.54285
LeftFoot  15.8002 3.04255 -12.9011
LeftToes  -7.27628e-011 -1.6005e-012 -1.37987e-011
281
root  -26.3223 38.8201 29.6472 175.313 -73.4917 178.096
RightUpLeg  -13.0741 -19.3942 10.6618
RightLeg  22.9834 -21.6413 -4.00163
RightFoot  -10.3918 0.076415 -17.5939
RightToes  -4.65663e-010 0 -3.6325e-017
Spine  -0.290335 -4.30655 4.87962
Spine1  7.50271 -5.25443 7.34014
HEad  13.102 -13.8237 -2.1704
LeftShoulder1  7.76452 -10.7837 -47.414
LeftArm  -9.04552 19.3001 -25.6878
LeftForeArm  27.0537 -32.5022 -5.63078
LeftHand  -0.244104 0.0205437 5.32207
RightShoulder  4.90898 7.64273 37.9937
RightArm  -10.8113 -19.9792 33.0589
RightForeArm  12.0725 12.6279 5.28878
RightHand  -0.780682 1.67611 -12.9641
LeftUpLeg  0.862448 8.02428 10.19
LeftLeg  59.0168 1.43097 3.15025
LeftFoot  15.0919 2.20008 -9.70653
LeftToes  -7.27628e-011 -1.6005e-012 -1.37987e-011
282
root  -27.5668 39.0361 29.0397 175.366 -69.8532 177.828
RightUpLeg  -9.80102 -15.5792 10.346
RightLeg  22.4289 -21.9865 -3.61643
RightFoot  -11.5572 -0.110012 -17.2989
RightToes  -4.65663e-010 0 -3.6325e-017
Spine  0.010188 -3.41094 5.69491
Spine1  7.73394 -4.02229 6.12275
HEad  13.2314 -15.5857 -0.354672
LeftShoulder1  7.8856 -10.8556 -47.9209
LeftArm  -6.52285 21.5279 -27.485
LeftForeArm  26.0365 -29.1974 -4.8898
LeftHand  -0.244104 0.0205437 5.32207
RightShoulder  5.02404 7.69436 38.7837
RightArm  -8.86737 -17.7388 34.4667
RightForeArm  9.54445 15.6632 5.16762
RightHand  -0.758323 1.65638 -12.6285
LeftUpLeg  -4.58937 6.68786 9.6276
LeftLeg  64.2291 2.46707 6.20296
LeftFoot  11.0738 1.37956 -7.30404
LeftToes  -7.27628e-011 -1.6005e-012 -1.37987e-011
283
root  -28.7743 39.253 28.4336 177.192 -64.2919 175.814
RightUpLeg  -6.51925 -13.2663 9.67616
RightLeg  21.4058 -18.9205 -2.70517
RightFoot  -12.5891 -0.266746 -16.6176
RightToes  -4.65663e-010 0 -3.6325e-017
Spine  0.263602 -1.98568 6.64623
Spine1  7.88338 -2.02208 3.88747
HEad  13.4873 -16.6058 1.16514
LeftShoulder1  7.89366 -10.7712 -48.2555
LeftArm  -4.32552 23.4892 -29.4965
LeftForeArm  24.816 -24.5163 -4.02034
LeftHand  -0.244104 0.0205437 5.32207
RightShoulder  5.19494 7.92578 39.3458
RightArm  -5.64174 -14.8786 35.9166
RightForeArm  8.4484 18.01 4.96085
RightHand  -0.710065 1.48296 -12.1287
LeftUpLeg  -9.07393 6.87247 8.57916
LeftLeg  65.8292 3.6544 9.5279
LeftFoot  7.34327 0.793839 -5.09348
LeftToes  -7.27628e-011 -1.6005e-012 -1.37987e-011
284
root  -29.9382 39.4409 27.8412 178.699 -58.1618 174.352
RightUpLeg  -3.58139 -11.2187 8.52964
RightLeg  20.3905 -15.1061 -1.33649
RightFoot  -13.4622 -0.393818 -16.2393
RightToes  -4.65663e-010 0 -3.6325e-017
Spine  0.6833 -0.739554 7.82175
Spine1  7.52065 -0.143343 1.36717
HEad  13.6401 -16.5481 1.85664
LeftShoulder1  7.96858 -10.8005 -48.6159
LeftArm  -4.28188 25.7678 -31.4746
LeftForeArm  24.6735 -19.3746 -3.99786
LeftHand  -0.244104 0.0205437 5.32207
RightShoulder  5.36757 8.23346 39.6122
RightArm  -0.642538 -11.553 37.3867
RightForeArm  7.66249 19.9376 4.78125
RightHand  -0.704747 1.35222 -12.2609
LeftUpLeg  -13.1171 6.81383 7.27585
LeftLeg  64.5285 5.01199 11.9698
LeftFoot  4.37003 0.310338 -2.43579
LeftToes  -7.27628e-011 -1.6005e-012 -1.37987e-011
285
root  -31.057 39.6642 27.2277 179.917 -52.0031 173.463
RightUpLeg  -0.896422 -8.97 7.2596
RightLeg  18.824 -11.3813 0.0858572
RightFoot  -13.8949 -0.465237 -16.5503
RightToes  -4.65663e-010 0 -3.6325e-017
Spine  1.0678 0.271216 8.95579
Spine1  6.83834 1.40848 -1.27776
HEad  13.7228 -15.5103 1.64307
LeftShoulder1  8.18031 -11.0185 -49.162
LeftArm  -6.97632 27.9831 -33.0508
LeftForeArm  27.3762 -14.2652 -5.11744
LeftHand  -0.244104 0.0205437 5.32207
RightShoulder  5.55253 8.53341 39.9883
RightArm  5.65995 -8.01929 38.4828
RightForeArm  6.5499 21.9653 4.65776
RightHand  -0.708925 1.14151 -12.7139
LeftUpLeg  -16.6568 6.31147 6.18927
LeftLeg  60.3588 6.40063 12.5595
LeftFoot  1.50353 0.0611325 -0.655327
LeftToes  -7.27628e-011 -1.6005e-012 -1.37987e-011
286
root  -32.1306 39.8591 26.5906 -179.099 -45.905 172.81
RightUpLeg  1.58258 -7.36384 5.88455
RightLeg  17.2762 -6.94292 1.05312
RightFoot  -14.3193 -0.530784 -16.6016
RightToes  -4.65663e-010 0 -3.6325e-017
Spine  1.40524 1.12921 9.87002
Spine1  6.31197 2.74689 -3.96743
HEad  13.5346 -13.8812 1.21551
LeftShoulder1  8.4446 -11.3198 -49.7212
LeftArm  -8.72819 29.7318 -34.3851
LeftForeArm  29.6652 -10.033 -5.82339
LeftHand  -0.244104 0.0205437 5.32207
RightShoulder  5.77162 8.81631 40.6689
RightArm  11.3834 -4.49256 39.0843
RightForeArm  6.53693 24.1434 4.79924
RightHand  -0.665647 0.74654 -12.6784
LeftUpLeg  -19.2307 5.74277 5.66245
LeftLeg  53.219 7.09617 10.5811
LeftFoot  -0.61891 0.0711497 -0.735267
LeftToes  -7.27628e-011 -1.6005e-012 -1.37987e-011
287
root  -33.2026 39.9331 25.9208 -178.581 -40.4144 172.481
RightUpLeg  3.73906 -6.68552 4.37174
RightLeg  16.67 -2.08613 1.63093
RightFoot  -15.1975 -0.642817 -15.9518
RightToes  -4.65663e-010 0 -3.6325e-017
Spine  1.64898 1.65881 10.7739
Spine1  6.13761 3.73923 -6.44096
HEad  12.8233 -12.1704 1.1224
LeftShoulder1  8.67117 -11.6362 -49.9899
LeftArm  -9.0532 31.1452 -35.6449
LeftForeArm  30.2275 -7.38807 -5.99691
LeftHand  -0.244104 0.0205437 5.32207
RightShoulder  5.94572 9.04288 41.1801
RightArm  15.295 -1.39744 39.78
RightForeArm  8.14349 26.313 5.22329
RightHand  -0.586262 0.266303 -12.0914
LeftUpLeg  -20.5016 4.99452 5.65729
LeftLeg  43.444 6.69277 7.15084
LeftFoot  -1.54731 0.158186 -1.73423
LeftToes  -7.27628e-011 -1.6005e-012 -1.37987e-011
288
root  -34.2797 39.9597 25.1736 -178.255 -35.8739 172.321
RightUpLeg  5.8112 -6.3936 2.74244
RightLeg  16.2553 2.40676 2.12881
RightFoot  -16.0214 -0.741896 -15.4008
RightToes  -4.65663e-010 0 -3.6325e-017
Spine  1.51367 1.88098 11.3921
Spine1  6.31298 4.29644 -8.46135
HEad  11.7496 -10.6836 1.09432
LeftShoulder1  8.82735 -11.9306 -49.9223
LeftArm  -9.18138 32.5056 -36.6897
LeftForeArm  29.9968 -6.44248 -5.96143
LeftHand  -0.244104 0.0205437 5.32207
RightShoulder  5.99346 9.18281 41.0422
RightArm  17.7689 0.750209 40.9074
RightForeArm  9.65274 28.5926 5.66985
RightHand  -0.514316 -0.205204 -11.5452
LeftUpLeg  -20.5809 4.55974 5.53357
LeftLeg  31.5012 5.9426 4.30828
LeftFoot  -1.48561 0.243843 -2.71772
LeftToes  -7.27628e-011 -1.6005e-012 -1.37987e-011
289
root  -35.306 40.0321 24.35 -177.779 -31.9445 171.95
RightUpLeg  8.12572 -6.13255 0.823409
RightLeg  14.9823 6.49587 2.45562
RightFoot  -16.3424 -0.77777 -15.1857
RightToes  -4.65663e-010 0 -3.6325e-017
Spine  1.00775 2.04362 11.084
Spine1  6.84813 4.63336 -9.89131
HEad  10.666 -9.36362 0.721058
LeftShoulder1  8.93284 -12.1489 -49.8162
LeftArm  -9.31801 33.7255 -37.0723
LeftForeArm  30.3888 -6.76114 -5.94545
LeftHand  -0.244104 0.0205437 5.32207
RightShoulder  5.99692 9.31296 40.6159
RightArm  19.2848 1.94236 41.743
RightForeArm  10.0457 31.0546 6.2464
RightHand  -0.470599 -0.60654 -11.4125
LeftUpLeg  -19.7539 5.41508 4.82655
LeftLeg  18.0734 5.83055 2.10996
LeftFoot  -0.6271 0.407609 -4.28233
LeftToes  -7.27628e-011 -1.6005e-012 -1.37987e-011
290
root  -36.3194 40.0375 23.4834 -177.525 -28.3604 171.612
RightUpLeg  10.429 -5.98585 -1.29922
RightLeg  13.9662 10.2011 2.64153
RightFoot  -16.884 -0.821913 -14.5596
RightToes  -4.65663e-010 0 -3.6325e-017
Spine  0.634373 2.16126 10.3367
Spine1  7.3916 4.86508 -10.7049
HEad  9.69323 -8.07193 0.173411
LeftShoulder1  9.00026 -12.24 -49.9019
LeftArm  -8.86583 34.4336 -36.4547
LeftForeArm  31.7936 -7.49582 -6.04397
LeftHand  -0.244104 0.0205437 5.32207
RightShoulder  6.0827 9.49231 40.6288
RightArm  20.3718 2.53848 41.5099
RightForeArm  9.7453 33.3702 6.85748
RightHand  -0.452101 -0.843144 -11.5074
LeftUpLeg  -18.3189 5.59882 4.76391
LeftLeg  5.58496 7.66074 -1.04412
LeftFoot  -0.267127 0.693114 -7.17325
LeftToes  -7.27628e-011 -1.6005e-012 -1.37987e-011
